<?xml version="1.0" encoding="utf-8"?>
<!-- Generator: Adobe Illustrator 21.0.0, SVG Export Plug-In . SVG Version: 6.00 Build 0)  -->
<svg version="1.1" id="Layer_2" xmlns="http://www.w3.org/2000/svg" xmlns:xlink="http://www.w3.org/1999/xlink" x="0px" y="0px"
	 viewBox="0 0 375 210.8" style="enable-background:new 0 0 375 210.8;" xml:space="preserve">
<style type="text/css">
	.st0{fill:#34495E;}
	.st1{fill:#FFFFFF;}
	.st2{fill:#2ECC71;}
	.st3{font-family:'Calibri';}
	.st4{font-size:22.5577px;}
	.st5{fill:#9B59B6;}
	.st6{fill:#F39C12;}
</style>
<rect x="-434" class="st0" width="375" height="210.8"/>
<g>
	<text transform="matrix(1 0 0 1 -286.2841 157.5366)" class="st1 st3 st4">portfolio</text>
	<g>
		<path class="st1" d="M-232.3,131.5c0-28.5,0-56.8,0-85.2c17.1-1.2,31.6,3.9,41.3,18.4c9.8,14.7,10.1,30.6,1.1,45.8
			C-199.3,126.3-214,132.7-232.3,131.5z M-225.9,124.8c9.9,0.9,22.3-4.4,29.8-15.8c7.9-12,8-28.8,0-40.4
			c-7.1-10.4-16.9-16.2-29.9-16.4C-225.9,76.6-225.9,100.7-225.9,124.8z"/>
		<path class="st1" d="M-267.2,131.6c-21.7,0.6-44.4-17.8-42.3-46.4c1.7-22.6,20.8-39.5,42.3-38.8c0,2,0,4,0,6.2
			c-12.6,0.1-22.5,5.4-29.9,15.6c-5.4,7.5-6.9,16-6.1,25c1.4,16.2,15,32.1,36,32.4C-267.2,127.5-267.2,129.4-267.2,131.6z"/>
		<path class="st1" d="M-254.2,125.3c5.5,0,10.7,0,16.1,0c0,2.1,0,4.1,0,6.2c-7.3,0-14.7,0-22.1,0c0-28.3,0-56.6,0-85.1
			c1.9,0,3.9,0,6.1,0C-254.2,72.6-254.2,98.8-254.2,125.3z"/>
	</g>
</g>
<rect class="st2" width="375" height="210.8"/>
<g>
	<g>
		<path class="st1" d="M169.9,117.1c-0.7,0-1.3,0-1.9,0c-1.9-0.1-3-1.5-2.4-3.3c1.4-4.1,2.9-8.2,4.4-12.2c0.1-0.2,0.1-0.4,0.3-0.5
			c1.4-0.7,0.8-1.7,0.5-2.8c-4.7-13.5-9.4-27.1-14.1-40.6c-0.3-0.8-0.7-1.2-1.5-1.5c-3.6-1.4-7.2-2.8-10.8-4.2
			c-1.7-0.7-2.5-1.9-2.2-3.4c0.4-1.9,2.1-2.9,4-2.2c4.5,1.7,9.1,3.5,13.5,5.4c0.7,0.3,1.4,1.2,1.7,2c0.8,2,1.5,4,2.1,6.1
			c0.3,1,0.8,1.4,1.9,1.4c21,0,42,0,63,0c0.4,0,0.7,0,1.1,0c2.7,0,3.9,1.8,3.1,4.3c-2,6.2-4,12.4-6,18.7c-1.9,6-3.8,11.9-5.7,17.9
			c-0.8,2.4-1.5,3-4.1,3c-13.6,0-27.3,0-40.9,0c-0.6,0-1.3,0-2.1,0c-0.8,2.2-1.7,4.7-2.6,7.3c0.7,0,1.2,0,1.7,0
			c14.6,0,29.1,0,43.7,0c0.6,0,1.2,0,1.8,0.1c1.1,0.2,1.8,1.1,1.8,2.2c0,1.1-0.6,2.1-1.7,2.3c-1,0.2-2.1,0.2-3.3,0.3
			c1.8,2.4,2.5,4.9,1.8,7.8c-0.5,2.1-1.7,3.8-3.4,5c-3.2,2.4-7.8,2.1-10.9-0.6c-3.4-2.9-3.7-7.2-0.9-12.2c-6.2,0-12.4,0-18.7,0
			c1.8,2.3,2.5,4.9,1.9,7.7c-0.5,2.1-1.6,3.8-3.3,5.1c-3.2,2.4-7.8,2.2-10.9-0.5C167.3,126.5,167,122.3,169.9,117.1z M183.9,73.6
			c0-2.2,0-4.3,0-6.4c-5.9,0-11.8,0-17.8,0c0.7,2.1,1.3,4,2.1,5.9c0.1,0.3,0.6,0.5,0.9,0.5C173.9,73.6,178.8,73.6,183.9,73.6z
			 M189.9,86.9c4.5,0,8.9,0,13.3,0c0-2.5,0-5,0-7.4c-4.5,0-8.8,0-13.3,0C189.9,82,189.9,84.4,189.9,86.9z M209.1,67.1
			c0,2.2,0,4.3,0,6.5c4.8,0,9.5,0,14.2,0c0.3,0,0.7-0.2,0.7-0.4c0.7-2,1.3-4,2-6.1C220.3,67.1,214.7,67.1,209.1,67.1z M170.4,79.5
			c0.8,2.3,1.6,4.4,2.3,6.6c0.2,0.8,0.6,0.9,1.4,0.9c2.9,0,5.8,0,8.7,0c0.4,0,0.8,0,1.1,0c0-2.6,0-5,0-7.5
			C179.4,79.5,175,79.5,170.4,79.5z M222,79.5c-4.5,0-8.7,0-12.9,0c0,2.5,0,4.9,0,7.5c3.4,0,6.7,0,10,0c0.2,0,0.6-0.2,0.7-0.4
			C220.6,84.2,221.3,81.9,222,79.5z M189.8,67.1c0,2.2,0,4.3,0,6.4c4.5,0,8.9,0,13.3,0c0-2.2,0-4.3,0-6.4
			C198.7,67.1,194.3,67.1,189.8,67.1z M203.2,92.8c-4.5,0-8.9,0-13.3,0c0,2.1,0,4.1,0,6.2c4.5,0,8.9,0,13.3,0
			C203.2,97,203.2,95,203.2,92.8z M183.9,92.9c-3,0-5.9,0-8.9,0c0.7,2,1.3,3.9,2,5.8c0.1,0.2,0.3,0.5,0.5,0.5c2.1,0,4.2,0,6.4,0
			C183.9,97,183.9,95,183.9,92.9z M209.1,99.1c1.3,0,2.6,0,3.9,0c2.8,0,2.8,0,3.6-2.7c0.4-1.2,0.7-2.4,1.1-3.6c-3,0-5.8,0-8.6,0
			C209.1,95,209.1,97,209.1,99.1z M208.7,126.8c2.1,0,3.9-1.7,3.9-3.9c0-2.1-1.8-3.9-3.9-3.9c-2.1,0-3.9,1.8-3.9,3.9
			C204.8,125.1,206.5,126.8,208.7,126.8z M176.5,126.8c2.2,0,3.9-1.7,3.9-3.8c0-2.1-1.7-3.9-3.8-3.9c-2.1,0-3.9,1.7-3.9,3.8
			C172.7,125,174.4,126.8,176.5,126.8z"/>
	</g>
	<text transform="matrix(1 0 0 1 145.689 157.5366)" class="st1 st3 st4">webshop</text>
</g>
<rect x="-434" y="242" class="st5" width="375" height="210.8"/>
<g>
	<g>
		<path class="st1" d="M-201.8,359.2c-2.1-0.3-4.2-0.5-6.3-0.9c-0.8-0.1-1.3,0.1-1.9,0.7c-1.3,1.5-2.7,2.8-4.1,4.1
			c-0.4,0.4-0.6,0.6-0.5,1.2c0.4,2.2,0.6,4.4,1,6.7c-1.7,0.6-3.5,1.2-5.2,1.9c-1.4,0.5-1.4,0.5-2.2-0.8c-0.9-1.5-1.8-3-2.6-4.5
			c-0.3-0.5-0.6-0.6-1.2-0.6c-2-0.2-4-0.4-6.1-0.7c-0.5-0.1-0.9-0.1-1.3,0.4c-1.5,1.6-3,3.3-4.6,4.9c-1.9-1.2-3.8-2.4-5.7-3.6
			c-0.1-0.1-0.1-0.5-0.1-0.8c0.7-1.9,1.4-3.8,2.1-5.6c0.2-0.5,0.1-0.9-0.2-1.4c-1.2-1.7-2.2-3.4-3.3-5.1c-0.3-0.4-0.5-0.7-1-0.7
			c-2-0.1-4-0.3-6-0.5c-0.5,0-0.8-0.1-0.9-0.7c-0.2-2.1-0.5-4.2-0.7-6.4c1.3-0.4,2.6-0.8,3.8-1.3c1-0.3,2.3-0.4,3-1.1
			c0.7-0.7,0.6-2,1-3c0.5-1.2,1-2.4,1.5-3.7c0.1-0.3,0.1-0.8-0.1-1c-1.2-1.9-2.5-3.8-3.7-5.6c1.7-1.7,3.3-3.3,5.1-5
			c1.7,1.1,3.5,2.3,5.3,3.5c0.5,0.3,0.9,0.4,1.5,0.1c1.8-0.7,3.7-1.4,5.6-2c0.6-0.2,1-0.4,1.2-1.1c0.5-1.9,1.2-3.7,1.7-5.6
			c0.2-0.5,0.4-0.7,1-0.6c1.9,0.3,3.7,0.4,5.6,0.6c0.5,0,0.7,0.2,0.7,0.7c0.2,2,0.4,4.1,0.5,6.1c0,0.5,0.2,0.8,0.7,1
			c1.8,1,3.6,2.2,5.4,3.3c0.3,0.2,0.8,0.3,1.1,0.2c2.1-0.8,4.2-1.6,6.4-2.4c1.2,2,2.5,3.9,3.8,5.9c-1.6,1.5-3.2,3.1-4.8,4.6
			c-0.4,0.4-0.5,0.7-0.4,1.3c0.3,2,0.5,4,0.7,6.1c0,0.6,0.2,0.9,0.7,1.2c1.7,1,3.5,2,5.2,3.1c0.2,0.1,0.5,0.6,0.4,0.8
			C-200.4,355.1-201.1,357.1-201.8,359.2z M-226,333.4c-7.5,0-13.6,6.1-13.6,13.6c0,7.5,6.1,13.6,13.6,13.6
			c7.5,0,13.6-6.1,13.6-13.5C-212.4,339.5-218.5,333.4-226,333.4z"/>
		<path class="st1" d="M-250.7,321.5c-1.4,1.3-2.7,2.6-4,3.9c-0.2,0.2-0.4,0.7-0.3,1.1c0.1,1.7,0.3,3.4,0.6,5.1
			c0,0.3,0.3,0.7,0.5,0.8c1.4,0.9,2.8,1.7,4.2,2.5c0.5,0.3,0.6,0.6,0.4,1.1c-0.5,1.4-1,2.7-1.4,4.1c-0.2,0.6-0.5,0.7-1.1,0.6
			c-1.5-0.2-3.1-0.4-4.6-0.7c-0.5-0.1-0.9,0-1.3,0.5c-1.1,1.2-2.2,2.4-3.5,3.5c-0.4,0.4-0.6,0.7-0.5,1.3c0.2,1.5,0.4,3.1,0.7,4.6
			c0.1,0.6-0.1,0.9-0.7,1.1c-1.6,0.5-3.1,1.1-4.7,1.6c-1-1.6-1.9-3.2-2.8-4.8c-0.3-0.5-0.6-0.6-1.2-0.6c-1.6-0.1-3.2-0.4-4.9-0.5
			c-0.4,0-0.9,0.1-1.1,0.3c-1.2,1.2-2.3,2.3-3.4,3.6c-0.4,0.4-0.6,0.4-1.1,0.1c-1.2-0.8-2.4-1.6-3.7-2.3c-0.5-0.3-0.7-0.6-0.4-1.2
			c0.6-1.5,1.1-3,1.7-4.5c0.2-0.5,0.1-0.7-0.2-1.2c-0.9-1.4-1.9-2.8-2.7-4.2c-0.3-0.5-0.6-0.7-1.1-0.7c-1.8-0.1-3.6-0.3-5.4-0.4
			c-0.2-1.9-0.4-3.8-0.7-5.8c1.7-0.6,3.4-1.1,5-1.6c0.7-0.2,1-0.5,1.1-1.2c0.4-1.5,1-3,1.6-4.5c0.2-0.5,0.2-0.8-0.1-1.2
			c-1.1-1.5-2.1-3.1-3.1-4.6c1.4-1.4,2.8-2.7,4.2-4.1c1.4,0.9,2.9,1.9,4.4,2.9c0.5,0.4,0.9,0.4,1.5,0.1c1.5-0.6,3.1-1.1,4.6-1.7
			c0.3-0.1,0.7-0.5,0.8-0.8c0.6-1.7,1.1-3.5,1.7-5.3c1.8,0.2,3.6,0.4,5.3,0.6c0.2,0,0.5,0.5,0.6,0.7c0.2,1.6,0.3,3.2,0.4,4.8
			c0,0.5,0.2,0.8,0.7,1c1.4,0.8,2.9,1.7,4.2,2.6c0.4,0.3,0.8,0.4,1.2,0.2c1.7-0.7,3.4-1.3,5.1-2
			C-252.8,318.2-251.8,319.8-250.7,321.5z M-271.2,342c6.3,0,11.4-5.1,11.4-11.3c0-6.3-5.1-11.4-11.4-11.4
			c-6.3,0-11.3,5.1-11.3,11.4C-282.6,336.9-277.4,342-271.2,342z"/>
		<path class="st1" d="M-234.5,292.4c0.1,1.3,0.3,2.6,0.3,3.8c0,0.6,0.2,0.9,0.7,1.1c1,0.5,1.9,1.1,2.7,1.7c0.5,0.4,0.9,0.4,1.4,0.2
			c1.1-0.5,2.3-0.9,3.6-1.4c0.8,1.2,1.5,2.4,2.3,3.7c-1,1-2,1.8-2.9,2.8c-0.2,0.2-0.3,0.7-0.3,1c0.1,1.2,0.2,2.3,0.4,3.5
			c0.1,0.3,0.3,0.7,0.5,0.9c1,0.6,2,1.2,2.9,1.8c0.2,0.1,0.4,0.5,0.4,0.7c-0.4,1.2-0.8,2.4-1.3,3.7c-1.3-0.2-2.6-0.3-3.8-0.5
			c-0.5-0.1-0.9,0-1.3,0.5c-0.7,0.9-1.6,1.6-2.4,2.4c-0.2,0.2-0.4,0.7-0.4,1c0.1,1.1,0.3,2.1,0.4,3.2c0.1,0.5,0,0.8-0.6,1
			c-0.9,0.3-1.9,0.6-2.8,1c-0.5,0.2-0.7,0.1-1-0.3c-0.5-1-1.2-1.9-1.7-2.9c-0.2-0.4-0.5-0.6-1-0.6c-1.2-0.1-2.3-0.3-3.5-0.3
			c-0.3,0-0.7,0.1-0.9,0.3c-0.9,0.9-1.8,1.9-2.8,2.9c-1.2-0.8-2.4-1.5-3.7-2.3c0.5-1.2,0.9-2.4,1.4-3.6c0.2-0.5,0.2-0.9-0.2-1.3
			c-0.7-0.9-1.2-1.9-1.9-2.9c-0.2-0.3-0.5-0.5-0.8-0.6c-1.3-0.2-2.6-0.3-4.1-0.4c-0.2-1.4-0.3-2.8-0.5-4.3c1.3-0.4,2.5-0.8,3.7-1.2
			c0.5-0.2,0.8-0.4,0.9-1c0.3-1.1,0.7-2.1,1-3.2c0.1-0.4,0.1-0.8-0.1-1.1c-0.7-1.1-1.4-2.2-2.1-3.2c1.1-1,2.1-2,3.2-3.1
			c1,0.6,2.1,1.4,3.2,2.1c0.3,0.2,0.7,0.2,1,0.1c1.1-0.3,2.2-0.7,3.3-1.2c0.3-0.1,0.7-0.4,0.8-0.7c0.4-1,0.7-2,1-3
			c0.2-0.7,0.5-0.9,1.2-0.8C-236.8,292.2-235.7,292.3-234.5,292.4z M-238.6,300c-4.7,0-8.5,3.7-8.5,8.3c0,4.7,3.7,8.5,8.4,8.6
			c4.6,0,8.4-3.8,8.5-8.4C-230.2,303.8-233.9,300-238.6,300z"/>
		<path class="st1" d="M-238.8,346.9c0-7.1,5.7-12.8,12.8-12.8c7.1,0,12.9,5.8,12.8,12.9c0,7-5.8,12.8-12.9,12.8
			C-233.1,359.8-238.9,354-238.8,346.9z M-234,346.9c0,4.5,3.6,8,8,8c4.3,0,7.9-3.6,7.9-7.9c0-4.4-3.6-8-8-8
			C-230.4,339-234,342.6-234,346.9z"/>
		<path class="st1" d="M-260.5,330.7c0,5.9-4.8,10.7-10.7,10.7c-5.9,0-10.7-4.9-10.7-10.8c0-5.9,4.9-10.7,10.8-10.6
			C-265.2,320-260.5,324.8-260.5,330.7z M-264.6,330.7c0-3.7-3-6.7-6.6-6.7c-3.6,0-6.6,3-6.6,6.6c0,3.7,2.9,6.7,6.6,6.7
			C-267.6,337.3-264.6,334.3-264.6,330.7z"/>
		<path class="st1" d="M-238.7,316.3c-4.4,0-7.9-3.6-7.9-8c0-4.4,3.7-8,8-7.9c4.4,0,8,3.7,7.9,8
			C-230.7,312.8-234.3,316.4-238.7,316.3z M-238.5,303.5c-2.7-0.1-5,2.1-5.1,4.8c-0.1,2.7,2.1,4.9,4.8,5c2.7,0.1,5-2.1,5.1-4.8
			C-233.6,305.8-235.8,303.5-238.5,303.5z"/>
	</g>
	<text transform="matrix(1 0 0 1 -350.0141 395.7043)" class="st1 st3 st4">staff management app</text>
</g>
<rect y="242" class="st6" width="375" height="210.8"/>
<g>
	<g>
		<path class="st1" d="M145.1,359.7c0-1.4,0-2.8,0-4.1c0-0.3,0.1-0.6,0.1-1c0.2-1.5,0.3-3,0.5-4.5c0.7-4.6,2-9,4-13.2
			c2.5-5.2,5.6-9.8,10.2-13.5c4.2-3.3,8.7-4.1,13.6-1.8c2.1,1,3.9,2.3,5.9,3.4c1.5,0.8,3,1.4,4.7,2.2c0.1-0.6,0.2-1,0.2-1.3
			c0.7-4.5,2.2-8.6,5.2-12c4.3-4.9,10-7.1,16.4-7.6c2.4-0.2,4.8-0.2,7.3-0.5c5.1-0.6,9.1-4.6,9.5-9.5c0.2-1.9,0.8-3.3,2.5-4.2
			c0.7,0,1.4,0,2.2,0c1.2,0.6,2,1.5,2.5,2.6c0,0.7,0,1.3,0,2c-0.1,0.2-0.1,0.4-0.2,0.6c-0.5,3.4-1.7,6.5-4,9.1
			c-3.7,4.2-8.5,6.2-14,6.7c-2.5,0.2-5,0.2-7.4,0.5c-5,0.6-8.9,3-11.2,7.7c-0.8,1.7-1.3,3.5-1.4,5.5c1.7-0.8,3.4-1.6,5-2.5
			c1.9-1,3.7-2.2,5.7-3c2.4-1,5.1-1.3,7.7-0.6c2.7,0.8,5,2.5,7,4.4c3.4,3.2,5.9,7.1,8,11.3c2.3,4.7,3.8,9.6,4.4,14.8
			c0.2,1.5,0.3,2.9,0.5,4.4c0,1.4,0,2.9,0,4.3c-0.1,0.3-0.1,0.6-0.2,0.9c-0.3,2.6-0.9,5.1-2.2,7.4c-2,3.7-5.4,5.5-9.4,5
			c-2.3-0.3-4.3-1.5-5.9-3c-2.4-2.3-4.6-4.6-6.9-7c-4.9-4.8-10.6-7.5-17.6-7.5c-5.6,0-10.7,1.4-15,5c-2.5,2.1-4.8,4.5-7.1,6.8
			c-1.9,1.8-3.7,3.8-6.1,4.9c-3.2,1.5-6.3,1.3-9.1-0.9c-2.5-2-3.8-4.7-4.6-7.8C145.5,362.3,145.4,361,145.1,359.7z M176.9,348.5
			c0-2.4,0-4.7,0-7.1c-2.3,0-4.6,0-7,0c0-2.4,0-4.7,0-7c-2.4,0-4.7,0-7,0c0,2.3,0,4.6,0,7c-2.4,0-4.7,0-7,0c0,2.4,0,4.7,0,7.1
			c2.4,0,4.7,0,7,0c0,2.4,0,4.7,0,7c2.4,0,4.7,0,7.1,0c0-2.4,0-4.7,0-7C172.3,348.5,174.5,348.5,176.9,348.5z M208.7,342.5
			c2.4,0,4.6-2.2,4.6-4.6c0-2.5-2.2-4.7-4.7-4.6c-2.4,0-4.6,2.2-4.6,4.6C204.1,340.4,206.2,342.5,208.7,342.5z M206.2,344.9
			c0-2.4-2.2-4.6-4.6-4.6c-2.5,0-4.7,2.2-4.6,4.7c0,2.4,2.2,4.6,4.6,4.6C204.1,349.6,206.3,347.4,206.2,344.9z M211.1,345
			c0,2.4,2.2,4.6,4.6,4.6c2.5,0,4.7-2.2,4.6-4.7c0-2.4-2.2-4.6-4.6-4.6C213.3,340.3,211.1,342.5,211.1,345z M208.7,347.4
			c-2.5,0-4.6,2.1-4.6,4.6c0,2.5,2.1,4.7,4.6,4.7c2.4,0,4.7-2.2,4.6-4.7C213.3,349.6,211.2,347.4,208.7,347.4z"/>
	</g>
	<text transform="matrix(1 0 0 1 121.793 395.7043)" class="st1 st3 st4">browser game</text>
</g>
</svg>
